<svg width="1232" height="380" viewBox="0 0 1232 380" fill="none" xmlns="http://www.w3.org/2000/svg">
<path d="M9.92111 1.45801H1221.61C1226.74 1.45801 1230.73 4.8833 1230.73 8.9206V371.219C1230.73 375.256 1226.74 378.682 1221.61 378.682H9.92111C4.79368 378.682 0.804504 375.256 0.804504 371.219V8.9206C0.804504 4.8833 4.79368 1.45801 9.92111 1.45801Z" fill="#100A30"/>
<path d="M9.92111 1.45801H1221.61C1226.74 1.45801 1230.73 4.8833 1230.73 8.9206V371.219C1230.73 375.256 1226.74 378.682 1221.61 378.682H9.92111C4.79368 378.682 0.804504 375.256 0.804504 371.219V8.9206C0.804504 4.8833 4.79368 1.45801 9.92111 1.45801Z" stroke="black"/>
<path d="M9.92111 1.45801H1221.61C1226.74 1.45801 1230.73 4.8833 1230.73 8.9206V371.219C1230.73 375.256 1226.74 378.682 1221.61 378.682H9.92111C4.79368 378.682 0.804504 375.256 0.804504 371.219V8.9206C0.804504 4.8833 4.79368 1.45801 9.92111 1.45801Z" stroke="black" stroke-opacity="0.2"/>
</svg>
